HIERARCHY
ROOT Hips
{
  OFFSET -4.35178 90.3298 111.633
  CHANNELS 6 Xposition Yposition Zposition Zrotation Xrotation Yrotation
  JOINT LeftUpLeg
  {
    OFFSET 0.103456 1.85784 10.5485
    CHANNELS 6 Xposition Yposition Zposition Zrotation Xrotation Yrotation
    JOINT LeftLeg
    {
      OFFSET 43.5 -4.2e-05 0
      CHANNELS 6 Xposition Yposition Zposition Zrotation Xrotation Yrotation
      JOINT LeftFoot
      {
        OFFSET 42.3722 1.9e-05 0
        CHANNELS 6 Xposition Yposition Zposition Zrotation Xrotation Yrotation
        JOINT LeftToe
        {
          OFFSET 17.3 0 0
          CHANNELS 6 Xposition Yposition Zposition Zrotation Xrotation Yrotation
          End Site
          {
            OFFSET 0 0 0
          }
        }
      }
    }
  }
  JOINT RightUpLeg
  {
    OFFSET 0.103456 1.85782 -10.5485
    CHANNELS 6 Xposition Yposition Zposition Zrotation Xrotation Yrotation
    JOINT RightLeg
    {
      OFFSET 43.5 -2.7e-05 0
      CHANNELS 6 Xposition Yposition Zposition Zrotation Xrotation Yrotation
      JOINT RightFoot
      {
        OFFSET 42.3723 0 0
        CHANNELS 6 Xposition Yposition Zposition Zrotation Xrotation Yrotation
        JOINT RightToe
        {
          OFFSET 17.3 0 1.7e-05
          CHANNELS 6 Xposition Yposition Zposition Zrotation Xrotation Yrotation
          End Site
          {
            OFFSET 0 0 0
          }
        }
      }
    }
  }
  JOINT Spine
  {
    OFFSET 6.90197 -2.60373 0
    CHANNELS 6 Xposition Yposition Zposition Zrotation Xrotation Yrotation
    JOINT Spine1
    {
      OFFSET 12.5881 0 0
      CHANNELS 6 Xposition Yposition Zposition Zrotation Xrotation Yrotation
      JOINT Spine2
      {
        OFFSET 12.3432 -1.8e-05 0
        CHANNELS 6 Xposition Yposition Zposition Zrotation Xrotation Yrotation
        JOINT Neck
        {
          OFFSET 25.8329 2.3e-05 0
          CHANNELS 6 Xposition Yposition Zposition Zrotation Xrotation Yrotation
          JOINT Head
          {
            OFFSET 11.7666 0 0
            CHANNELS 6 Xposition Yposition Zposition Zrotation Xrotation Yrotation
            End Site
            {
              OFFSET 0 0 0
            }
          }
        }
        JOINT LeftShoulder
        {
          OFFSET 19.7459 -1.48035 6.0001
          CHANNELS 6 Xposition Yposition Zposition Zrotation Xrotation Yrotation
          JOINT LeftArm
          {
            OFFSET 11.2841 1.8e-05 -2e-05
            CHANNELS 6 Xposition Yposition Zposition Zrotation Xrotation Yrotation
            JOINT LeftForeArm
            {
              OFFSET 33 -1.3e-05 1.9e-05
              CHANNELS 6 Xposition Yposition Zposition Zrotation Xrotation Yrotation
              JOINT LeftHand
              {
                OFFSET 25.2 3.2e-05 1.1e-05
                CHANNELS 6 Xposition Yposition Zposition Zrotation Xrotation Yrotation
                End Site
                {
                  OFFSET 0 0 0
                }
              }
            }
          }
        }
        JOINT RightShoulder
        {
          OFFSET 19.7461 -1.48036 -6.00008
          CHANNELS 6 Xposition Yposition Zposition Zrotation Xrotation Yrotation
          JOINT RightArm
          {
            OFFSET 11.2841 0 0
            CHANNELS 6 Xposition Yposition Zposition Zrotation Xrotation Yrotation
            JOINT RightForeArm
            {
              OFFSET 33.0001 1.6e-05 0
              CHANNELS 6 Xposition Yposition Zposition Zrotation Xrotation Yrotation
              JOINT RightHand
              {
                OFFSET 25.1998 0.000123 0.000432
                CHANNELS 6 Xposition Yposition Zposition Zrotation Xrotation Yrotation
                End Site
                {
                  OFFSET 0 0 0
                }
              }
            }
          }
        }
      }
    }
  }
}
MOTION
Frames:	7
Frame Time:	0.0333333
-32.2029 89.2077 -139.764 -87.0714 0.0905415 -176.976 0.103456 1.85784 10.5485 3.06348 -4.96563 176.501 43.5 -4.2e-05 1e-05 -11.2338 -8.09657 -1.31045 42.3722 1.9e-05 -2.84217e-14 75.5769 -6.9711 6.43241 17.3 3.55271e-15 3e-06 21.4546 -1e-06 0.003093 0.103456 1.85782 -10.5485 9.27997 8.78863 174.424 43.5 -2.7e-05 4e-06 -1.78868 14.8545 4.08335 42.3723 7.10543e-15 1e-05 83.4212 22.0733 -17.0072 17.3 -6e-06 1.7e-05 21.4546 -1.9e-05 -0.003116 6.90197 -2.60373 -3e-06 7.48705 -0.115348 -0.151688 12.5881 1e-05 8e-06 4.94563 -0.18834 -0.261855 12.3432 -1.8e-05 -5e-06 4.63072 -0.132024 -0.238451 25.8329 2.3e-05 7e-06 9.64401 -2.25967 -6.50869 11.7666 -8e-06 -6e-06 -27.4522 -3.91544 7.46064 19.7459 -1.48035 6.0001 -177.785 3.60565 -98.9795 11.2841 1.8e-05 -2e-05 15.9206 -25.5013 31.3584 33 -1.3e-05 1.9e-05 -12.3292 13.3683 -24.8555 25.2 3.2e-05 1.1e-05 1.11336 35.4353 -2.16043 19.7461 -1.48036 -6.00008 -172.932 -11.9965 89.0279 11.2841 -1.42109e-14 -1e-06 18.055 20.4266 -14.8955 33.0001 1.6e-05 -1e-06 -19.0265 3.37053 22.397 25.1998 0.000123 0.000432 5.91866 -13.5607 6.45875 
-32.2065 89.208 -139.752 -87.0587 0.00894435 -176.965 0.103456 1.85784 10.5485 3.16385 -4.84377 176.506 43.5 -4.2e-05 1e-05 -11.1244 -8.20071 -1.36214 42.3722 1.9e-05 0 75.7213 -6.51034 6.46937 17.3 0 3e-06 21.4546 -1e-06 0.003093 0.103456 1.85782 -10.5485 9.34155 8.74915 174.451 43.5 -2.7e-05 4e-06 -1.70998 14.8752 4.0613 42.3723 7.10543e-15 1e-05 83.4222 22.0063 -17.056 17.3 -6e-06 1.7e-05 21.4546 -1.9e-05 -0.003116 6.90197 -2.60373 -3e-06 7.48706 -0.10532 -0.160548 12.5881 1e-05 8e-06 4.96262 -0.169364 -0.280956 12.3432 -1.8e-05 -5e-06 4.6475 -0.113959 -0.258658 25.8329 2.3e-05 7e-06 9.64579 -2.23912 -6.52296 11.7666 -8e-06 -6e-06 -27.3304 -3.84214 7.42209 19.7459 -1.48035 6.0001 -177.769 3.65571 -98.9926 11.2841 1.8e-05 -2e-05 15.7983 -25.498 31.2976 33 -1.3e-05 1.9e-05 -12.2712 13.3712 -24.8256 25.2 3.2e-05 1.1e-05 1.13916 35.4509 -2.13593 19.7461 -1.48036 -6.00008 -172.894 -11.944 89.0343 11.2841 0 -1e-06 18.1301 20.3707 -14.915 33.0001 1.6e-05 -1e-06 -19.0869 3.42036 22.3826 25.1998 0.000123 0.000432 5.98494 -13.5434 6.46523 
-32.1831 89.2083 -139.751 -87.0756 -0.0284024 -176.96 0.103456 1.85784 10.5485 3.16073 -4.85419 176.511 43.5 -4.2e-05 1e-05 -11.0969 -8.18641 -1.36835 42.3722 1.9e-05 2.84217e-14 75.695 -6.53431 6.43193 17.3 1.77636e-15 3e-06 21.4546 -1e-06 0.003093 0.103456 1.85782 -10.5485 9.34136 8.77348 174.458 43.5 -2.7e-05 4e-06 -1.70886 14.8974 4.05218 42.3723 0 1e-05 83.4376 21.9911 -17.1114 17.3 -6e-06 1.7e-05 21.4546 -1.9e-05 -0.003116 6.90197 -2.60373 -3e-06 7.48142 -0.102417 -0.170215 12.5881 1e-05 8e-06 4.9513 -0.165353 -0.300646 12.3432 -1.8e-05 -5e-06 4.63617 -0.111363 -0.278579 25.8329 2.3e-05 7e-06 9.64973 -2.21703 -6.54457 11.7666 -8e-06 -6e-06 -27.1834 -3.77408 7.40089 19.7459 -1.48035 6.0001 -177.839 3.64109 -99.0205 11.2841 1.8e-05 -2e-05 15.7928 -25.5885 31.2864 33 -1.3e-05 1.9e-05 -12.2261 13.3561 -24.8463 25.2 3.2e-05 1.1e-05 1.12435 35.4444 -2.14849 19.7461 -1.48036 -6.00008 -172.879 -11.9234 89.0003 11.2841 0 -1e-06 18.1236 20.2804 -14.8563 33.0001 1.6e-05 -1e-06 -19.1237 3.41936 22.3561 25.1998 0.000123 0.000432 5.96282 -13.5367 6.44503 
-32.1416 89.2085 -139.814 -87.0899 0.14744 -176.984 0.103456 1.85784 10.5485 3.55824 -5.22538 176.529 43.5 -4.2e-05 1e-05 -10.3411 -8.26091 -1.36919 42.3722 1.9e-05 0 75.539 -7.06046 6.43474 17.3 1.77636e-15 3e-06 21.4546 -1e-06 0.003093 0.103456 1.85782 -10.5485 9.28973 8.76681 174.404 43.5 -2.7e-05 4e-06 -1.82593 14.8068 4.06875 42.3723 -7.10543e-15 1e-05 83.4811 22.0793 -16.9695 17.3 -6e-06 1.7e-05 21.4546 -1.9e-05 -0.003116 6.90197 -2.60373 -3e-06 7.47464 -0.0561073 -0.160453 12.5881 1e-05 8e-06 4.93677 -0.0715311 -0.287904 12.3432 -1.8e-05 -5e-06 4.6202 -0.0171764 -0.27169 25.8329 2.3e-05 7e-06 9.67813 -2.33348 -6.50171 11.7666 -8e-06 -6e-06 -27.0325 -3.80974 7.26544 19.7459 -1.48035 6.0001 -177.889 3.59887 -99.0024 11.2841 1.8e-05 -2e-05 15.7386 -25.6201 31.2976 33 -1.3e-05 1.9e-05 -12.2299 13.4353 -24.832 25.2 3.2e-05 1.1e-05 1.1183 35.4885 -2.14472 19.7461 -1.48036 -6.00008 -172.908 -11.8876 89.0843 11.2841 0 -1e-06 18.1487 20.3079 -14.7585 33.0001 1.6e-05 -1e-06 -19.0718 3.39503 22.2859 25.1998 0.000123 0.000432 5.93373 -13.5781 6.47302 
-32.1116 89.2081 -139.81 -87.09 0.113413 -176.98 0.103456 1.85784 10.5485 3.57389 -5.23629 176.54 43.5 -4.2e-05 1e-05 -10.3272 -8.25402 -1.36919 42.3722 1.9e-05 0 75.5291 -7.07429 6.42552 17.3 1.77636e-15 3e-06 21.4546 -1e-06 0.003093 0.103456 1.85782 -10.5485 9.33473 8.7676 174.408 43.5 -2.7e-05 4e-06 -1.76917 14.8295 4.06905 42.3723 -7.10543e-15 1e-05 83.4675 22.0727 -16.9827 17.3 -6e-06 1.7e-05 21.4546 -1.9e-05 -0.003116 6.90197 -2.60373 -3e-06 7.464 -0.0550818 -0.173603 12.5881 1e-05 8e-06 4.91556 -0.0715664 -0.314321 12.3432 -1.8e-05 -5e-06 4.59908 -0.0191575 -0.298082 25.8329 2.3e-05 7e-06 9.71196 -2.34007 -6.50491 11.7666 -8e-06 -6e-06 -26.8152 -3.78407 7.2345 19.7459 -1.48035 6.0001 -177.924 3.5425 -99.0043 11.2841 1.8e-05 -2e-05 15.592 -25.5894 31.1551 33 -1.3e-05 1.9e-05 -12.1996 13.4491 -24.8057 25.2 3.2e-05 1.1e-05 1.15416 35.5224 -2.17337 19.7461 -1.48036 -6.00008 -172.989 -11.8715 89.0775 11.2841 0 -1e-06 18.1714 20.3775 -14.7488 33.0001 1.6e-05 -1e-06 -19.062 3.40681 22.2881 25.1998 0.000123 0.000432 5.92794 -13.5813 6.4865 
-32.0908 89.2072 -139.801 -87.0888 0.082237 -176.976 0.103456 1.85784 10.5485 3.5889 -5.24398 176.55 43.5 -4.2e-05 1e-05 -10.3303 -8.2504 -1.37321 42.3722 1.9e-05 0 75.5364 -7.07955 6.41613 17.3 0 3e-06 21.4546 -1e-06 0.003093 0.103456 1.85782 -10.5485 9.3898 8.75455 174.418 43.5 -2.7e-05 4e-06 -1.70813 14.851 4.06271 42.3723 -7.10543e-15 1e-05 83.4539 22.0351 -17.0076 17.3 -6e-06 1.7e-05 21.4546 -1.9e-05 -0.003116 6.90197 -2.60373 -3e-06 7.454 -0.0486408 -0.186239 12.5881 1e-05 8e-06 4.89543 -0.0607473 -0.340505 12.3432 -1.8e-05 -5e-06 4.5789 -0.0102989 -0.32491 25.8329 2.3e-05 7e-06 9.75018 -2.30529 -6.53864 11.7666 -8e-06 -6e-06 -26.5872 -3.70132 7.22078 19.7459 -1.48035 6.0001 -177.97 3.49252 -99.015 11.2841 1.8e-05 -2e-05 15.4747 -25.5957 31.0408 33 -1.3e-05 1.9e-05 -12.2219 13.4701 -24.7884 25.2 3.2e-05 1.1e-05 1.16076 35.5531 -2.20098 19.7461 -1.48036 -6.00008 -173.094 -11.8343 89.0361 11.2841 0 -1e-06 18.1778 20.4062 -14.6891 33.0001 1.6e-05 -1e-06 -19.0235 3.35428 22.2729 25.1998 0.000123 0.000432 5.93751 -13.6219 6.48672 
-32.0868 89.2071 -139.791 -87.0869 0.0520055 -176.971 0.103456 1.85784 10.5485 3.5918 -5.25652 176.564 43.5 -4.2e-05 1e-05 -10.3514 -8.24516 -1.38312 42.3722 1.9e-05 0 75.5526 -7.08771 6.40774 17.3 -3.55271e-15 3e-06 21.4546 -1e-06 0.003093 0.103456 1.85782 -10.5485 9.36936 8.7377 174.453 43.5 -2.7e-05 4e-06 -1.80822 14.847 4.03833 42.3723 0 1e-05 83.498 22.0371 -17.0119 17.3 -6e-06 1.7e-05 21.4546 -1.9e-05 -0.003116 6.90197 -2.60373 -3e-06 7.44721 -0.0327841 -0.202441 12.5881 1e-05 8e-06 4.88162 -0.031545 -0.375126 12.3432 -1.8e-05 -5e-06 4.56477 0.0164548 -0.361293 25.8329 2.3e-05 7e-06 9.78855 -2.20594 -6.5953 11.7666 -8e-06 -6e-06 -26.3262 -3.5446 7.2337 19.7459 -1.48035 6.0001 -178.022 3.48239 -99.0306 11.2841 1.8e-05 -2e-05 15.363 -25.643 30.9234 33 -1.3e-05 1.9e-05 -12.2837 13.5017 -24.7723 25.2 3.2e-05 1.1e-05 1.12321 35.5676 -2.17934 19.7461 -1.48036 -6.00008 -173.164 -11.762 89.0047 11.2841 0 -1e-06 18.2483 20.4169 -14.7018 33.0001 1.6e-05 -1e-06 -19.0463 3.36583 22.2727 25.1998 0.000123 0.000432 5.99659 -13.6319 6.4868 
